<svg width="800" height="134" viewBox="0 0 800 134" fill="none" xmlns="http://www.w3.org/2000/svg">
<g clip-path="url(#clip0_8_33)">
<path d="M44.0156 0.125L3 134.009H35.275L42.6781 109.063H82.6875L89.8906 134.009H124.988L83.975 0.125H44.0156ZM50.7844 82.1313L62.9687 40.4906L75.0156 82.1313H50.7844Z" fill="#7951D7"/>
<path d="M202.103 72.9281C201.619 72.4094 201.125 71.9187 200.622 71.4594C201.631 71.0781 202.616 70.6719 203.578 70.2281C207.484 68.4344 210.906 66.0312 213.75 63.1031C216.625 60.1469 218.884 56.5844 220.463 52.5125C222.025 48.4906 222.819 43.8688 222.819 38.7844C222.819 31.775 221.553 25.7125 219.066 20.7594C216.55 15.75 212.909 11.625 208.25 8.49688C203.728 5.46563 198.228 3.275 191.9 1.99063C185.819 0.75625 178.969 0.125 171.547 0.125H129.678V134.009H161.787V81.6969H162.741C166.253 81.6969 169.181 82.4688 171.691 84.0625C174.181 85.6406 176.091 87.9687 177.538 91.1937L196.944 134.009H234.303L210.725 86.25C207.869 80.45 205.047 76.0969 202.103 72.9281ZM188.137 47.2438C187.209 49.0125 185.922 50.4625 184.2 51.675C182.384 52.95 180.131 53.9281 177.494 54.5844C174.709 55.2813 171.531 55.6312 168.044 55.6312H161.787V27.4469H168.844C176.194 27.4469 181.656 28.6 185.078 30.8781C188.059 32.8625 189.509 36.2062 189.509 41.1062C189.509 43.475 189.059 45.4844 188.137 47.2438Z" fill="#7951D7"/>
<path d="M328.378 16.025C322.972 10.5906 316.153 6.52188 308.113 3.9375C300.275 1.40938 291.05 0.125 280.697 0.125H238.231V134.009H275.197C287.125 134.009 297.559 132.384 306.206 129.181C314.988 125.934 322.322 121.222 328 115.178C333.669 109.147 337.894 101.778 340.55 93.2812C343.156 84.9625 344.475 75.6062 344.475 65.4719C344.475 54.425 343.153 44.7344 340.541 36.6688C337.872 28.4063 333.781 21.4625 328.378 16.025ZM302.125 97.3906C296.55 103.584 288.463 106.594 277.4 106.594H270.338V27.5406H279.097C285.287 27.5406 290.484 28.4156 294.538 30.1438C298.469 31.8156 301.509 34.1781 303.834 37.3594C306.209 40.6219 307.931 44.7156 308.95 49.5187C310.022 54.6 310.569 60.4875 310.569 67.0187C310.569 80.95 307.728 91.1687 302.125 97.3906Z" fill="#7951D7"/>
<path d="M421.822 85.2969C421.822 89.9125 421.397 93.8468 420.55 96.9906C419.763 99.925 418.603 102.322 417.097 104.112C415.653 105.834 413.887 107.05 411.703 107.828C409.325 108.678 406.284 109.106 402.659 109.106C398.825 109.106 395.663 108.616 393.259 107.644C390.95 106.706 389.094 105.366 387.581 103.55C386.063 101.722 384.975 99.4281 384.347 96.7219C383.647 93.7344 383.294 90.2187 383.294 86.2625V0.125H351.188V87.7125C351.188 94.95 352.084 101.594 353.847 107.456C355.681 113.547 358.706 118.812 362.841 123.097C366.975 127.378 372.388 130.691 378.928 132.931C385.284 135.122 392.966 136.231 401.756 136.231C409.616 136.231 416.828 135.122 423.184 132.931C429.684 130.703 435.287 127.325 439.841 122.887C444.397 118.444 447.931 112.85 450.347 106.263C452.722 99.7938 453.928 92.2188 453.928 83.7469V0.125H421.822V85.2969Z" fill="#7951D7"/>
<path d="M470.347 27.0594H499.159V106.884H470.347V134.009H560.481V106.884H531.669V27.0594H560.481V0.125H470.347V27.0594Z" fill="#7951D7"/>
<path d="M649.831 76.4125L613.938 0.125H577.597V134.009H607.5V56.2719L643.584 134.009H679.741V0.125H649.831V76.4125Z" fill="#7951D7"/>
<path d="M783.684 15.9657C774.309 4.04378 760.256 -2 741.922 -2C734.078 -2 726.597 -0.609355 719.684 2.13127C712.675 4.90939 706.481 9.23441 701.272 14.9969C696.109 20.7094 692.009 28.0563 689.094 36.8281C686.209 45.4875 684.747 55.8719 684.747 67.6969C684.747 89.5407 689.394 106.534 698.556 118.216C707.931 130.172 721.984 136.231 740.319 136.231C748.166 136.231 755.653 134.841 762.566 132.1C769.578 129.319 775.769 124.991 780.972 119.238C786.128 113.528 790.228 106.184 793.153 97.4063C796.031 88.75 797.494 78.3656 797.494 66.5344C797.494 44.6281 792.847 27.6125 783.684 15.9657ZM762.553 85.5313C761.634 90.4719 760.2 94.6375 758.291 97.9156C756.478 101.038 754.234 103.325 751.438 104.903C748.65 106.475 745.178 107.272 741.122 107.272C733.097 107.272 727.503 104.284 724.022 98.1438C720.197 91.3969 718.256 80.7656 718.256 66.5344C718.256 59.8531 718.738 53.85 719.694 48.7031C720.613 43.7719 722.056 39.6125 723.994 36.3344C725.838 33.2 728.088 30.9063 730.872 29.3219C733.619 27.7563 737.066 26.9625 741.122 26.9625C749.209 26.9625 754.819 29.9438 758.266 36.075C762.063 42.825 763.988 53.4657 763.988 67.6969C763.988 74.3969 763.506 80.3969 762.553 85.5313Z" fill="#7951D7"/>
</g>
<defs>
<clipPath id="clip0_8_33">
<rect width="800" height="134" fill="white"/>
</clipPath>
</defs>
</svg>
