<svg width="800" height="262" viewBox="0 0 800 262" fill="none" xmlns="http://www.w3.org/2000/svg">
<g clip-path="url(#clip0_8_2)">
<path d="M307.209 228.53C277.441 209.354 237.042 205.989 171.89 224.065C102.433 240.387 79.275 250.85 48.862 229.846C37.178 219.528 32.989 202.915 36.117 178.985C43.372 139.975 62.978 102.434 97.804 60.792C117.242 39.13 135.274 20.54 159.083 13.075C177.331 8.39198 175.625 22.733 173.417 24.784C171.087 24.784 167.173 25.151 164.148 27.125C161.693 29.029 154.954 35.177 154.592 43.447C154.07 56.107 167.171 53.472 172.822 46.521C178.913 38.688 187.915 23.688 180.834 9.70798C177.866 4.73198 172.738 1.29298 166.371 0.121984C144.569 -1.12402 124.265 9.26899 105.525 20.759C64.543 49.228 31.76 88.676 13.21 131.856C2.51602 157.909 -7.15598 195.229 7.34102 225.604C18.557 246.68 41.84 257.875 69.619 255.534C89.102 253.487 112.661 247.19 128.506 243.388C144.352 239.579 225.46 211.699 252.11 260.224C252.11 260.224 260.972 243.021 283.119 242.654C301.327 240.974 327.595 247.925 346.723 261.974C340.35 252.39 322.282 238.265 307.209 228.53Z" fill="#7951D7"/>
<path d="M180.16 65.6949C164.99 55.7419 134.5 74.7699 110.079 107.409C87.747 136.686 78.104 170.713 88.599 186.448C104.209 204.963 133.19 178.032 145.514 163.617L147.104 161.932C155.485 152.93 161.959 142.098 168.227 131.704C168.227 131.704 173.987 122.19 174.262 121.75C177.822 121.094 182.11 120.069 186.942 118.678C186.873 118.896 168.455 149.854 170.334 165.22C170.919 169.908 170.473 187.033 187.192 192.228C209.476 195.963 227.27 178.689 242.968 163.32C242.968 163.32 245.643 160.761 247.156 159.3C246.773 160.832 246.274 162.877 246.274 162.877C239.75 185.565 248.544 190.326 254.045 192.082C270.67 196.916 290.531 172.763 290.596 172.763C290.08 180.371 288.575 186.664 296.595 191.715C304.164 194.425 311.825 190.293 317.649 186.414C338.624 171.632 355.522 148.494 369.17 128.495H360.464C360.361 128.495 338.982 159.483 325.099 166.218C325.077 166.218 322.55 167.515 321.095 166.489C319.292 164.952 320.003 161.755 321.116 159.491C321.186 159.344 374.72 66.4949 374.72 66.4949H349.444C349.444 66.4949 346.683 70.9619 346.458 71.2549C346.288 71.1089 345.883 70.3409 345.603 69.9729C329.943 48.3109 294.48 81.6309 267.781 120.271C257.502 135.129 244.415 151.858 230.845 163.933C230.845 163.933 210.741 182.361 202.152 169.121C199.012 163.558 199.978 155.425 201.749 150.084C211.75 121.614 228.983 95.7769 248.594 80.1879C254.129 75.8729 260.147 74.6249 263.132 76.4549C265.978 78.1409 266.437 82.3089 264.637 85.1639C260.07 85.0179 256.41 86.4059 253.436 89.4799C247.576 95.6279 245.54 101.557 247.403 107.12C256.454 120 274.505 94.5309 273.632 79.0159C273.32 73.4529 270.353 68.1849 265.923 65.6209C259.322 61.6709 249.252 62.6939 242.735 65.8429C234.01 69.1349 220.201 80.6239 212.14 89.5539C201.992 100.753 184.587 113.193 179.145 111.8C180.924 107.042 195.625 76.9639 180.16 65.6949ZM302.021 110.191C306.938 103.386 321.249 85.1619 324.738 82.0889C336.472 71.7659 341.162 76.3079 341.568 79.5259C330.617 99.1389 317.692 121.608 305.54 141.808C305.565 141.736 301.737 147.589 301.737 147.589C296.37 155.783 290.966 162.81 282.151 167.712C280.894 168.081 278.822 168.228 277.443 167.199C275.783 166.101 275.128 164.271 275.315 162.368C275.844 156.076 282.25 136.832 302.021 110.191ZM164.516 121.973C164.516 121.973 164.295 122.634 164.187 122.85C164.159 122.85 153.166 140.778 153.166 140.778C146.532 149.635 138.249 160.762 127.895 166.102C124.826 167.126 120.583 167.787 118.421 165.081C113.838 159.591 116.2 151.979 118.119 145.833L118.799 143.637C124.301 128.709 133.03 115.533 141.528 103.311C141.634 103.239 141.872 103.166 141.958 103.166C141.979 103.239 142.013 103.239 142.027 103.386C147.359 113.63 157.357 118.385 164.834 120.584C164.879 120.584 164.928 120.657 164.928 120.804C164.929 121.022 164.807 121.317 164.516 121.973ZM174.93 100.825C174.881 100.971 170.034 112.095 170.034 112.095C169.333 112.68 168.225 112.388 166.955 112.095L164.779 111.727C157.946 109.606 152.792 105.068 151.203 99.6529C149.012 89.1139 158.015 80.8439 161.981 77.8449C165.787 75.2079 171.704 73.8179 175.14 76.5269C177.259 79.0159 178.062 82.2349 178.062 85.7499C178.063 90.5049 176.595 95.8469 174.93 100.825ZM494.47 134.78C492.032 129.512 486.247 126.145 480.081 126.51C460.058 128.341 440.473 144.807 430.189 168.444C424.793 180.594 421.848 190.619 419.917 206.573C426.144 199.403 438.844 187.621 453.256 181.18C453.256 181.18 455.217 165.885 465.217 152.272C469.001 146.635 476.573 137.561 485.076 139.975C492.506 142.464 489.894 163.03 480.02 182.932C472.714 197.571 461.534 212.212 450.222 222.309C440.221 230.798 425.424 241.044 412.478 233.141C404.324 228.313 400.165 218.21 401.043 205.184C404.939 168.227 421.763 136.757 445.838 100.897C470.662 67.5979 498.026 33.4209 534.889 15.1949C542.408 11.3899 549.371 10.5119 555.39 12.8539C555.39 12.8539 520.786 31.8819 504.291 67.0849C500.095 76.0149 494.259 88.0869 500.136 98.7729C503.207 104.334 508.659 104.774 513.05 104.481C533.269 99.7959 546.332 80.9149 557.005 63.6449C563.193 50.5449 568.693 37.5179 568.693 23.0269C568.693 21.2709 568.602 18.9299 568.454 17.1719C578.113 12.0509 597.922 21.1239 597.922 21.1239C613.401 26.2489 646.36 51.4989 657.478 56.3269C662.901 50.0339 671.813 40.5209 676.832 35.7629L669.567 31.2979C657.937 24.1989 645.644 17.4649 633.545 10.8059C606.066 -4.19508 583.698 1.07292 572.315 5.17192C567.841 6.78092 563.753 8.17192 563.753 8.17192C555.305 -1.04908 541.449 -0.173075 531.24 2.31692C494.526 12.8549 460.439 38.5419 423.894 83.1129C397.026 118.023 380.36 148.176 371.477 177.961C364.63 198.013 362.549 227.506 379.261 244.998C393.47 259.851 412.311 256.633 425.615 251.293C454.442 237.095 480.351 206.502 493.261 171.299C496.377 160.835 499.834 146.052 494.47 134.78ZM560.757 24.4919C556.941 68.2569 522.922 93.9469 514.504 95.9929C509.403 97.0159 500.699 94.7489 508.47 76.3819C519.912 51.6429 539.449 30.6409 560.409 19.8819C560.92 21.7119 560.906 22.8799 560.757 24.4919ZM762.555 30.0519C744.256 40.4459 725.286 47.1769 702.324 44.8359C695.961 52.0099 689.764 59.4009 684.053 67.0109C716.282 75.2079 750.449 56.9849 769.505 39.6419C789.664 22.1499 800 0.122925 800 0.122925C800 0.122925 784.89 17.3929 762.555 30.0519ZM416.729 66.4969H392.725L379.185 88.4969H403.184L416.729 66.4969Z" fill="#7951D7"/>
<path d="M702.228 230.567C699.647 232.323 696.021 230.973 697.376 226.949C700.754 216.703 714.18 195.823 714.18 195.823L751.576 129.497H725.961C724.743 131.497 722.14 136.089 722.14 136.089C720.955 134.115 717.411 129.726 715.952 128.777C709.694 124.822 700.513 126.692 694.179 130.277C666.64 146.38 646.547 178.195 630.7 203.006C630.7 203.006 614.019 230.586 604.76 232.637C597.531 233.223 598.277 223.485 598.59 221.216C601.385 204.82 607.876 189.233 614.415 175.108C627.717 165.887 642.896 153.812 656.691 140.566C686.629 111.948 711.868 79.5269 715.557 72.2819C715.557 72.2819 711.564 73.0879 706.849 73.2329C683.817 105.361 636.685 152.055 622.396 159.006C628.726 143.78 669.624 71.1099 704.426 36.3479L709.903 31.0769C718.372 22.8069 727.146 14.3179 733.984 12.9269C734.706 12.8539 735.636 12.9269 736.439 14.6129C736.744 21.0519 734.347 25.8099 731.597 31.2249L727.743 39.1299C727.743 39.1299 733.202 38.1049 736.788 36.9309C740.947 29.1039 745.555 20.3189 743.856 9.85594C743.29 6.48894 740.852 3.92794 737.667 3.34194C727.285 1.36594 715.971 9.04794 706.866 15.2709L706.499 15.4889C659.697 52.1549 620.178 104.995 585.626 177.156C583.122 179.056 573.447 181.327 571.803 180.228C575.215 173.204 579.511 163.761 581.66 153.515C582.032 150.586 582.378 147.588 582.378 144.661C582.378 138.362 580.866 132.436 575.224 128.34C568.608 125.046 560.431 126.584 554.917 129.07C530.22 139.316 511.761 164.64 498.44 185.495C491.276 198.745 484.133 212.936 482.155 229.186C480.762 241.918 483.598 250.116 490.838 254.215C498.282 258.018 507.652 254.065 511.333 252.164C536.354 238.99 553.837 212.572 567.617 188.42C568.165 188.348 575.689 188.13 581.381 186.664C581.456 186.664 581.488 186.664 581.614 186.74C581.288 187.834 578.347 196.619 578.347 196.619C569.613 222.231 565.574 239.651 573.824 249.969C585.613 264.533 605.131 249.459 621.008 229.549C617.6 253.406 629.964 257.141 639.39 255.313C650.217 252.387 662.282 240.821 667.881 234.895C666.083 241.846 666.571 254.29 676.421 255.532C683.171 256.78 688.224 253.108 694.069 249.96C715.038 238.542 740.139 200.495 746.656 189.495H738.111C728.846 203.498 717.057 221.854 702.228 230.567ZM514.01 228.019C512.68 226.042 512.239 223.882 512.195 221.546C511.94 207.195 527.38 181.497 538.277 167.497H538.3C542.866 177.497 553.208 183.925 559.451 186.634C551.698 203.907 525.105 240.899 514.01 228.019ZM563.828 178.912C563.09 179.428 550.049 175.034 547.528 162.959C545.39 152.563 552.549 144.44 559.475 140.346C562.448 138.002 566.926 137.2 570.211 138.366C573.26 140.419 574.086 144.081 574.086 148.026C574.086 150.446 573.765 152.932 573.482 155.2L573.42 155.714C571.236 163.828 568.012 171.625 563.828 178.912ZM668.425 223.409C668.414 223.409 665.95 225.604 665.95 225.604C662.432 228.75 658.812 232.116 654.442 230.432C653.235 229.994 652.386 228.385 652.182 227.137C651.983 218.135 656.036 209.794 659.968 201.671L660.976 199.548C672.284 180.667 685.428 158.419 704.732 142.979C707.985 140.632 711.515 138.66 715.241 140.198C716.098 141.002 717.096 142.393 717.096 143.782C717.096 144.223 716.704 145.393 716.479 145.758C711.087 154.471 705.953 163.617 700.96 172.399C691.202 189.744 681.079 207.671 668.425 223.409Z" fill="#7951D7"/>
</g>
<defs>
<clipPath id="clip0_8_2">
<rect width="800" height="262" fill="white"/>
</clipPath>
</defs>
</svg>
