<svg width="800" height="155" viewBox="0 0 800 155" fill="none" xmlns="http://www.w3.org/2000/svg">
<g clip-path="url(#clip0_8_9)">
<path d="M128.13 -0.125C142.599 2.3811 156.439 6.78233 169.382 12.8383C192.014 46.6354 203.259 84.7537 199.107 128.719C181.791 141.666 164.995 149.521 148.481 154.661C144.392 149.055 140.775 143.08 137.645 136.815C143.606 134.55 149.33 131.755 154.74 128.494C153.325 127.434 151.925 126.325 150.557 125.185C118.049 140.574 82.3005 140.574 49.3992 125.185C48.0468 126.325 46.6469 127.434 45.2159 128.494C50.6101 131.739 56.3191 134.534 62.2797 136.799C59.15 143.08 55.5171 149.039 51.4437 154.645C34.9459 149.505 18.1648 141.65 0.849122 128.719C-2.68951 90.7935 4.38775 52.3219 30.495 12.8704C43.4386 6.7985 57.2944 2.3811 71.7792 -0.125C73.5721 3.08773 75.6953 7.40892 77.1263 10.8464C92.2246 8.53328 107.464 8.53328 122.845 10.8464C124.277 7.40892 126.353 3.08773 128.13 -0.125ZM524.899 49.3852C535.907 49.3852 545.046 51.7466 552.312 56.469V77.0463C549.749 75.2471 546.759 73.7853 543.346 72.661C539.934 71.5366 536.285 70.9741 532.385 70.9741C525.56 70.9741 520.229 72.2432 516.375 74.7973C512.521 77.3514 510.589 80.6765 510.589 84.8047C510.589 88.8526 512.458 92.1618 516.202 94.7641C519.946 97.3503 525.371 98.6514 532.495 98.6514C536.159 98.6514 539.777 98.1051 543.346 97.029C546.901 95.9367 549.969 94.6035 552.531 93.0291V112.931C544.465 117.879 535.107 120.353 524.458 120.353C515.495 120.321 507.85 118.747 501.543 115.598C495.239 112.45 490.472 108.177 487.295 102.78C484.119 97.3823 482.515 91.3105 482.515 84.5638C482.515 77.8173 484.165 71.7775 487.468 66.4605C490.771 61.1435 495.614 56.9671 502.001 53.9311C508.385 50.8952 516.013 49.3852 524.899 49.3852ZM442.217 49.3698C448.381 49.3698 454.028 50.0444 459.173 51.3938C464.315 52.7432 468.561 54.4618 471.943 56.5661V74.2198C468.481 72.1155 464.518 70.461 459.99 69.2078C455.475 67.9711 450.837 67.3607 446.054 67.3607C439.15 67.3607 435.707 68.5653 435.707 70.9588C435.707 72.0834 436.242 72.9186 437.311 73.4808C438.379 74.043 440.345 74.6213 443.193 75.2317L454.201 77.2557C461.39 78.5248 466.752 80.7576 470.274 83.938C473.799 87.1186 475.558 91.8252 475.558 98.0577C475.558 104.884 472.65 110.298 466.815 114.314C460.979 118.33 452.707 120.337 441.981 120.337C435.674 120.322 429.543 119.534 423.597 117.96C417.652 116.386 412.288 114.105 407.524 111.101V92.4356C411.126 95.2786 415.953 97.6241 422.008 99.4713C428.062 101.303 433.914 102.218 439.575 102.218C442.217 102.218 444.215 101.865 445.566 101.158C446.92 100.451 447.598 99.5998 447.598 98.6199C447.598 97.4955 447.236 96.5639 446.496 95.8087C445.756 95.0539 444.325 94.4273 442.203 93.8971L428.992 90.8612C421.426 89.0623 416.062 86.5724 412.872 83.3758C409.678 80.1951 408.089 76.0187 408.089 70.8464C408.089 66.4932 409.473 62.7185 412.274 59.4896C415.056 56.261 419.02 53.7711 424.162 52.0201C429.307 50.2533 435.312 49.3698 442.217 49.3698ZM800 37.1134V118.073H773.026V103.343C770.745 108.884 767.286 113.109 762.632 116C757.975 118.876 752.219 120.322 745.394 120.322C739.292 120.322 733.977 118.811 729.43 115.776C724.886 112.74 721.38 108.579 718.91 103.294C716.457 98.0095 715.213 92.0341 715.213 85.3518C715.136 78.4606 716.441 72.2761 719.129 66.7985C721.805 61.3209 725.593 57.0482 730.469 53.9799C735.345 50.9119 740.912 49.3698 747.156 49.3698C759.784 49.3698 768.325 54.8773 772.794 65.8771L773.025 66.4594L773.026 37.1134H800ZM602.291 49.3537C611.022 49.3537 618.554 50.8475 624.861 53.8514C631.168 56.8552 635.981 60.9676 639.284 66.2201C642.587 71.473 644.237 77.4966 644.237 84.3236C644.237 91.0701 642.587 97.1743 639.284 102.652C635.981 108.129 631.152 112.434 624.798 115.583C618.444 118.731 610.942 120.305 602.278 120.305C593.611 120.305 586.109 118.747 579.771 115.599C573.418 112.45 568.574 108.145 565.239 102.668C561.906 97.1902 560.223 91.0862 560.223 84.3395C560.223 77.5931 561.889 71.5692 565.239 66.2846C568.588 60.9996 573.401 56.8552 579.725 53.8514C586.029 50.8475 593.564 49.3537 602.291 49.3537ZM395.48 67.794V118.426H368.588V67.794C376.828 71.4242 387.052 71.5848 395.48 67.794ZM700.367 50.8313C704.251 50.8313 707.587 51.7309 710.386 53.5299V77.8176C707.587 75.9381 703.969 75.0064 699.487 75.0064C693.619 75.0064 689.091 76.8218 685.944 80.452C682.784 84.0824 681.21 89.7366 681.21 97.3826V118.072H654.239V52.2931H680.662V73.2075C682.123 65.5612 684.5 59.9232 687.77 56.2766C691.026 52.6464 695.239 50.8313 700.367 50.8313ZM311.633 39.3622C321.983 39.3622 330.727 41.0166 337.9 44.3097C345.054 47.6024 350.418 52.1966 353.973 58.0758C357.525 63.955 359.318 70.6855 359.318 78.2674C359.318 85.6887 357.462 92.4192 353.751 98.4428C350.04 104.483 344.393 109.254 336.798 112.771C329.203 116.289 319.796 118.056 308.552 118.056H268.699V39.3622H311.633ZM66.7621 64.4818C56.7124 64.4818 48.7857 73.7182 48.7857 84.9464C48.7857 96.1746 56.8854 105.395 66.7621 105.395C76.8119 105.395 84.754 96.1746 84.7384 84.9464C84.9113 73.702 76.8119 64.4818 66.7621 64.4818ZM133.194 64.4818C123.144 64.4818 115.218 73.7182 115.218 84.9464C115.218 96.1746 123.317 105.395 133.194 105.395C143.244 105.395 151.17 96.1746 151.17 84.9464C151.343 73.702 143.244 64.4818 133.194 64.4818ZM602.278 70.0754C597.574 70.0754 593.893 71.4086 591.204 74.075C588.532 76.7418 587.194 80.3078 587.194 84.8055C587.194 89.3032 588.532 92.9175 591.204 95.6481C593.879 98.379 597.574 99.7604 602.278 99.7604C606.899 99.7443 610.55 98.379 613.223 95.6481C615.898 92.9175 617.249 89.3032 617.249 84.8055C617.249 80.3078 615.912 76.7256 613.223 74.075C610.55 71.4086 606.899 70.0754 602.278 70.0754ZM758.164 70.4128C753.619 70.4128 749.988 71.746 747.266 74.4125C744.544 77.0792 743.193 80.5326 743.193 84.8055C743.193 89.0785 744.544 92.5642 747.266 95.2627C749.988 97.9612 753.573 99.3106 758.054 99.3106C762.599 99.2947 766.247 97.9292 769.002 95.1986C771.754 92.4677 773.122 88.9178 773.122 84.5808C773.122 80.3881 771.784 76.9665 769.112 74.3483C766.436 71.7301 762.772 70.4128 758.164 70.4128ZM309.668 59.377H296.237V98.0574H308.111C315.078 98.0574 320.442 96.2744 324.184 92.7243C327.928 89.1582 329.8 84.3072 329.8 78.155C329.8 72.4524 328.131 67.9064 324.798 64.501C321.465 61.0956 316.416 59.377 309.668 59.377ZM382.046 34.623C389.472 34.623 395.494 40.1461 395.494 46.9594C395.494 53.7727 389.472 59.2961 382.046 59.2961C374.618 59.2961 368.599 53.7727 368.599 46.9594C368.599 40.1461 374.618 34.623 382.046 34.623Z" fill="#7951D7"/>
</g>
<defs>
<clipPath id="clip0_8_9">
<rect width="800" height="155" fill="white"/>
</clipPath>
</defs>
</svg>
