<svg width="737" height="232" viewBox="0 0 737 232" fill="none" xmlns="http://www.w3.org/2000/svg">
<g clip-path="url(#clip0_2_14)">
<path d="M153.5 43L106.325 190.706L5.00719 74.5618L153.5 43Z" fill="#6142AA"/>
<path d="M99.4519 92.6847L1.50592 74.418L158.149 39.2877L99.4519 92.6847Z" fill="url(#paint0_linear_2_14)"/>
<path d="M97.6406 93.3835L107.73 193.234L158.149 39.2877L97.6406 93.3835Z" fill="url(#paint1_linear_2_14)"/>
<path d="M98.7408 92.3999L107.73 193.234L1.50594 74.418L98.7408 92.3999Z" fill="url(#paint2_linear_2_14)"/>
<path d="M198.928 163V62.9464H242.355C249.735 62.9464 255.98 64.1763 261.089 66.6363C266.198 69.0962 270.077 72.6442 272.726 77.2803C275.375 81.9163 276.7 87.5458 276.7 94.1688C276.7 100.697 275.375 106.327 272.726 111.057C270.077 115.693 266.198 119.289 261.089 121.843C255.98 124.303 249.735 125.533 242.355 125.533H217.094V163H198.928ZM217.094 111.199H239.517C245.951 111.199 250.823 109.78 254.135 106.942C257.446 104.009 259.102 99.751 259.102 94.1688C259.102 88.5866 257.446 84.3763 254.135 81.5379C250.823 78.6995 245.951 77.2803 239.517 77.2803H217.094V111.199ZM291.508 163V62.9464H334.936C345.911 62.9464 354.379 65.5955 360.34 70.8939C366.3 76.0976 369.281 83.4302 369.281 92.8915C369.281 99.0414 367.909 104.34 365.165 108.787C362.516 113.233 358.637 116.639 353.528 119.005C348.418 121.37 342.221 122.553 334.936 122.553L336.213 120.424H340.897C344.776 120.424 348.135 121.37 350.973 123.262C353.906 125.155 356.461 128.135 358.637 132.203L375.383 163H355.373L338.058 131.068C336.923 128.986 335.646 127.378 334.226 126.243C332.807 125.013 331.199 124.161 329.401 123.688C327.603 123.215 325.522 122.979 323.157 122.979H309.674V163H291.508ZM309.674 109.496H331.814C338.342 109.496 343.262 108.172 346.573 105.522C349.98 102.779 351.683 98.7102 351.683 93.3173C351.683 88.0189 349.98 84.0451 346.573 81.396C343.262 78.6522 338.342 77.2803 331.814 77.2803H309.674V109.496ZM388.801 163V62.9464H406.967V163H388.801ZM463.203 164.419C457.999 164.419 452.985 163.946 448.159 163C443.429 162.148 439.029 160.871 434.961 159.168C430.987 157.465 427.439 155.431 424.317 153.066L429.852 138.732C432.974 140.908 436.238 142.8 439.644 144.408C443.145 145.922 446.835 147.105 450.714 147.956C454.688 148.713 458.851 149.092 463.203 149.092C470.677 149.092 476.118 147.862 479.524 145.402C482.93 142.847 484.633 139.583 484.633 135.609C484.633 133.433 484.112 131.588 483.072 130.075C482.031 128.466 480.328 127.094 477.963 125.959C475.597 124.824 472.475 123.877 468.596 123.12L452.985 119.856C443.996 117.964 437.279 114.794 432.832 110.348C428.48 105.806 426.304 99.8456 426.304 92.4657C426.304 86.2213 427.959 80.781 431.271 76.1449C434.582 71.5089 439.171 67.9136 445.037 65.359C450.903 62.8044 457.668 61.5272 465.332 61.5272C469.873 61.5272 474.225 62.0002 478.388 62.9464C482.646 63.7979 486.525 65.1225 490.026 66.9201C493.621 68.6232 496.743 70.7047 499.393 73.1646L493.858 86.7889C489.884 83.4775 485.532 81.0175 480.801 79.4091C476.07 77.706 470.867 76.8545 465.19 76.8545C460.838 76.8545 457.1 77.4695 453.978 78.6995C450.856 79.9295 448.443 81.6798 446.74 83.9505C445.132 86.1266 444.328 88.7285 444.328 91.7561C444.328 95.1622 445.463 97.906 447.734 99.9875C450.004 101.974 453.883 103.536 459.371 104.671L474.84 107.935C484.207 109.922 491.161 113.044 495.703 117.302C500.339 121.559 502.657 127.236 502.657 134.332C502.657 140.293 501.048 145.544 497.831 150.085C494.615 154.627 490.026 158.175 484.065 160.729C478.199 163.189 471.245 164.419 463.203 164.419ZM518.532 163V62.9464H533.717L571.468 132.629H566.927L604.535 62.9464H619.437V163H602.974V89.9112H606.096L574.306 147.815H563.662L531.588 89.7693H534.995V163H518.532ZM630.672 163L675.944 62.9464H690.846L736.118 163H717.669L705.606 134.9L713.269 139.867H653.379L661.043 134.9L649.121 163H630.672ZM683.182 82.6732L663.313 129.933L659.624 125.391H707.025L703.477 129.933L683.466 82.6732H683.182Z" fill="url(#paint3_linear_2_14)"/>
</g>
<defs>
<linearGradient id="paint0_linear_2_14" x1="159.864" y1="63.8134" x2="1.53876" y2="74.8875" gradientUnits="userSpaceOnUse">
<stop stop-color="#6142AA"/>
<stop offset="1" stop-color="#1C0B39"/>
</linearGradient>
<linearGradient id="paint1_linear_2_14" x1="104.693" y1="192.676" x2="133.687" y2="34.7954" gradientUnits="userSpaceOnUse">
<stop stop-color="#6142AA"/>
<stop offset="1" stop-color="#1C0B39"/>
</linearGradient>
<linearGradient id="paint2_linear_2_14" x1="99.7243" y1="93.5001" x2="48.5627" y2="139.039" gradientUnits="userSpaceOnUse">
<stop stop-color="#6142AA"/>
<stop offset="1" stop-color="#1C0B39"/>
</linearGradient>
<linearGradient id="paint3_linear_2_14" x1="462.5" y1="19" x2="462.5" y2="185.658" gradientUnits="userSpaceOnUse">
<stop stop-color="#6142AA"/>
<stop offset="1" stop-color="#2E1752"/>
</linearGradient>
<clipPath id="clip0_2_14">
<rect width="737" height="232" fill="white"/>
</clipPath>
</defs>
</svg>
