<svg width="800" height="171" viewBox="0 0 800 171" fill="none" xmlns="http://www.w3.org/2000/svg">
<g clip-path="url(#clip0_8_12)">
<path d="M799.803 77.2445V63.1787H782.336V41.3112L781.748 41.4921L765.342 46.5114L765.019 46.6101V63.1787H739.124V53.9495C739.124 49.6517 740.085 46.3625 741.979 44.1691C743.86 42.0018 746.551 40.9002 749.981 40.9002C752.448 40.9002 755.002 41.4814 757.572 42.6275L758.216 42.9147V28.1014L757.913 27.9902C755.516 27.1285 752.254 26.6942 748.212 26.6942C743.117 26.6942 738.488 27.8025 734.451 29.9998C730.411 32.2 727.233 35.3412 725.008 39.3354C722.79 43.3248 721.664 47.9321 721.664 53.0308V63.1787H709.501V77.2445H721.664V136.501H739.124V77.2445H765.019V114.901C765.019 130.41 772.334 138.27 786.76 138.27C789.132 138.27 791.626 137.991 794.174 137.447C796.767 136.889 798.533 136.331 799.573 135.735L799.803 135.599V121.403L799.093 121.873C798.145 122.506 796.966 123.021 795.582 123.404C794.192 123.795 793.031 123.991 792.133 123.991C788.753 123.991 786.253 123.08 784.701 121.283C783.132 119.47 782.336 116.298 782.336 111.862V77.2445H799.803ZM670.51 123.992C664.172 123.992 659.176 121.891 655.655 117.752C652.112 113.591 650.317 107.66 650.317 100.124C650.317 92.3493 652.112 86.2642 655.657 82.0302C659.18 77.8242 664.129 75.6898 670.368 75.6898C676.422 75.6898 681.241 77.7284 684.692 81.7526C688.162 85.7971 689.923 91.8339 689.923 99.6994C689.923 107.662 688.267 113.778 685.002 117.869C681.76 121.93 676.885 123.992 670.51 123.992ZM671.287 61.4122C659.196 61.4122 649.593 64.9548 642.747 71.9422C635.904 78.9306 632.434 88.6008 632.434 100.688C632.434 112.168 635.821 121.402 642.501 128.129C649.181 134.859 658.272 138.268 669.518 138.268C681.239 138.268 690.651 134.676 697.495 127.592C704.338 120.515 707.806 110.936 707.806 99.1317C707.806 87.4722 704.552 78.1695 698.132 71.4867C691.71 64.801 682.676 61.4122 671.287 61.4122ZM604.283 61.4118C596.058 61.4118 589.256 63.5153 584.059 67.6633C578.83 71.8354 576.178 77.3083 576.178 83.9302C576.178 87.3722 576.751 90.4302 577.878 93.023C579.011 95.6256 580.765 97.9157 583.095 99.8383C585.409 101.745 588.977 103.744 593.708 105.775C597.684 107.412 600.65 108.797 602.534 109.888C604.376 110.956 605.683 112.032 606.421 113.078C607.138 114.102 607.502 115.504 607.502 117.235C607.502 122.16 603.814 124.557 596.223 124.557C593.408 124.557 590.196 123.97 586.677 122.81C583.157 121.653 579.868 119.988 576.903 117.854L576.178 117.334V134.144L576.444 134.268C578.915 135.408 582.029 136.369 585.701 137.127C589.365 137.884 592.694 138.27 595.587 138.27C604.511 138.27 611.698 136.156 616.941 131.983C622.219 127.782 624.894 122.181 624.894 115.329C624.894 110.387 623.454 106.148 620.616 102.73C617.797 99.3393 612.906 96.2271 606.082 93.4756C600.646 91.2938 597.163 89.4824 595.727 88.0927C594.342 86.7493 593.639 84.8499 593.639 82.4447C593.639 80.3122 594.506 78.6043 596.289 77.2203C598.085 75.8296 600.584 75.1226 603.719 75.1226C606.628 75.1226 609.605 75.582 612.564 76.4824C615.523 77.3828 618.12 78.5888 620.29 80.0646L621.002 80.552V64.6062L620.729 64.4882C618.728 63.6304 616.089 62.8963 612.885 62.3006C609.694 61.7107 606.799 61.4118 604.283 61.4118ZM530.66 123.992C524.324 123.992 519.326 121.891 515.806 117.752C512.263 113.591 510.47 107.662 510.47 100.124C510.47 92.3493 512.264 86.2642 515.81 82.0302C519.33 77.8242 524.278 75.6898 530.52 75.6898C536.572 75.6898 541.391 77.7284 544.844 81.7526C548.314 85.7971 550.074 91.8339 550.074 99.6994C550.074 107.662 548.417 113.778 545.152 117.869C541.911 121.93 537.037 123.992 530.66 123.992ZM531.44 61.4122C519.346 61.4122 509.742 64.9548 502.899 71.9422C496.057 78.9306 492.585 88.6008 492.585 100.688C492.585 112.172 495.973 121.402 502.653 128.129C509.333 134.859 518.423 138.268 529.671 138.268C541.388 138.268 550.803 134.676 557.647 127.592C564.489 120.515 567.958 110.936 567.958 99.1317C567.958 87.4722 564.704 78.1695 558.283 71.4867C551.858 64.801 542.826 61.4122 531.44 61.4122ZM466.08 75.876V63.1787H448.833V136.499H466.08V98.9931C466.08 92.6149 467.526 87.376 470.379 83.4186C473.196 79.5085 476.951 77.5269 481.534 77.5269C483.087 77.5269 484.831 77.7832 486.72 78.29C488.589 78.7938 489.943 79.3402 490.742 79.9157L491.466 80.4408V63.053L491.187 62.9331C489.58 62.2503 487.309 61.906 484.433 61.906C480.1 61.906 476.221 63.2987 472.899 66.0404C469.983 68.4505 467.874 71.7551 466.263 75.876H466.08ZM417.946 61.4118C410.034 61.4118 402.976 63.1091 396.973 66.4534C390.957 69.8054 386.305 74.5917 383.14 80.6778C379.989 86.7493 378.389 93.8412 378.389 101.749C378.389 108.677 379.941 115.035 383.006 120.637C386.074 126.249 390.416 130.64 395.913 133.686C401.401 136.727 407.744 138.27 414.767 138.27C422.964 138.27 429.962 136.63 435.573 133.399L435.799 133.269V117.468L435.075 117.997C432.533 119.848 429.693 121.326 426.637 122.391C423.589 123.454 420.809 123.992 418.373 123.992C411.605 123.992 406.173 121.874 402.229 117.7C398.276 113.519 396.272 107.65 396.272 100.263C396.272 92.8296 398.362 86.8093 402.481 82.3664C406.587 77.937 412.03 75.6903 418.657 75.6903C424.326 75.6903 429.851 77.6101 435.077 81.4012L435.799 81.9263V65.2774L435.566 65.1459C433.599 64.0453 430.917 63.1362 427.587 62.4466C424.271 61.759 421.029 61.4118 417.946 61.4118ZM366.511 63.1789H349.263V136.499H366.511V63.1789ZM358.063 31.9439C355.224 31.9439 352.749 32.9101 350.715 34.825C348.672 36.7457 347.635 39.1635 347.635 42.0165C347.635 44.825 348.66 47.1983 350.682 49.0677C352.691 50.9314 355.175 51.8762 358.063 51.8762C360.95 51.8762 363.443 50.9314 365.477 49.0706C367.524 47.1983 368.562 44.825 368.562 42.0165C368.562 39.2631 367.552 36.8695 365.561 34.9023C363.573 32.9391 361.049 31.9439 358.063 31.9439ZM315.03 57.7695V136.499H332.632V34.1892H308.271L277.306 110.181L247.256 34.1892H221.903V136.499H238.444V57.7617H239.013L270.744 136.499H283.226L314.462 57.7695H315.03Z" fill="#7951D7"/>
<path d="M81.1354 81.1354H0V0H81.1354V81.1354Z" fill="#7951D7"/>
<path d="M170.719 81.1354H89.5842V0H170.719V81.1354Z" fill="#7951D7"/>
<path d="M81.1335 170.751H0V89.6151H81.1335V170.751Z" fill="#7951D7"/>
<path d="M170.719 170.751H89.5842V89.6151H170.719V170.751Z" fill="#7951D7"/>
</g>
<defs>
<clipPath id="clip0_8_12">
<rect width="800" height="171" fill="white"/>
</clipPath>
</defs>
</svg>
