<svg width="800" height="304" viewBox="0 0 800 304" fill="none" xmlns="http://www.w3.org/2000/svg">
<g clip-path="url(#clip0_8_19)">
<path d="M152.258 302.94C69.0682 302.94 1.38669 235.231 1.38669 152.013C1.38669 68.7863 69.0682 1.07983 152.258 1.07983C235.446 1.07983 303.125 68.7891 303.125 152.013C303.125 235.231 235.446 302.94 152.258 302.94Z" fill="white"/>
<path d="M152.258 2.46356C234.811 2.46356 301.738 69.4157 301.738 152.01C301.738 234.604 234.811 301.553 152.258 301.553C69.7005 301.553 2.77338 234.601 2.77338 152.01C2.77338 69.4184 69.7005 2.46356 152.258 2.46356ZM152.258 -0.309814C68.3027 -0.309814 3.8147e-06 68.0206 3.8147e-06 152.01C3.8147e-06 236.001 68.3027 304.326 152.258 304.326C236.211 304.326 304.511 235.993 304.511 152.01C304.511 68.0206 236.211 -0.309814 152.258 -0.309814Z" fill="#004883"/>
<path d="M797.199 90.6737C798.877 88.7157 800 86.4831 800 83.6847C800.021 80.9071 799.025 78.2179 797.199 76.1245C795.233 74.161 792.728 73.0405 789.919 73.0405C787.129 73.0405 784.893 74.1637 782.644 76.1245C780.695 78.0853 779.843 80.6035 779.843 83.6847C779.843 86.4831 780.695 88.7157 782.644 90.6737C784.893 92.6344 787.129 93.472 789.919 93.472C792.728 93.472 795.233 92.6344 797.199 90.6737ZM797.767 193.674V103.27H782.647L782.933 193.674H797.767ZM762.773 107.752L760.26 106.629C753.54 102.707 745.42 100.752 735.63 100.752C724.991 100.752 716.316 103.268 709.879 108.307C706.521 110.828 704.28 113.343 702.602 116.707C700.927 119.783 700.078 122.861 700.078 126.497C700.078 132.657 702.885 137.693 707.927 142.17C712.677 146.371 719.672 149.73 728.91 152.526C736.742 155.044 742.061 157.565 745.42 160.086C748.224 162.887 749.905 165.963 749.905 169.879C749.905 174.077 747.664 177.436 743.739 180.237C739.818 182.478 734.215 183.876 727.229 183.876C719.666 183.876 712.117 181.915 704.28 178.271L702.319 176.879L695.882 188.629L698.128 189.75C706.801 193.949 716.322 195.904 726.675 195.904C737.871 195.904 747.106 193.666 754.381 188.629C758.019 186.388 760.54 183.316 762.501 180.24C764.451 176.601 765.297 172.677 765.297 168.761V168.472C765.297 161.758 762.501 155.879 757.182 151.125C752.708 147.212 745.428 143.848 735.91 141.052C728.63 138.523 723.316 136.007 720.235 134.049C716.876 131.525 715.479 128.733 715.479 125.654C715.479 122.013 716.876 119.22 719.963 116.702C723.316 114.458 727.787 113.058 733.669 113.058C741.787 113.058 748.504 114.458 753.823 117.817L755.784 119.217L762.773 107.752ZM671.537 114.466C661.181 105.511 648.31 100.755 633.467 100.755C618.915 100.755 606.881 105.228 597.089 113.906C586.167 123.707 580.576 137.136 580.576 154.769V225.019H595.122V179.68C599.604 184.713 605.209 188.635 611.921 191.439C618.638 194.512 625.912 195.909 633.755 195.909C648.587 195.909 661.181 191.439 671.537 181.912C682.176 172.677 687.484 161.486 687.484 148.327C687.484 134.895 682.176 123.705 671.537 114.466ZM633.467 113.343C644.389 113.343 653.898 116.707 661.173 123.419C668.736 130.136 672.655 138.528 672.655 148.615C672.655 158.122 669.291 165.96 662.576 172.677C655.302 179.674 645.506 183.316 633.753 183.316C621.988 183.316 612.47 179.677 604.918 172.677C597.926 165.685 594.57 157.848 594.57 148.615C594.57 139.371 597.929 131.259 604.918 124.537C612.201 117.265 621.719 113.343 633.467 113.343ZM557.341 118.948C547.553 106.629 533.556 100.752 514.8 100.752C500.805 100.752 488.763 104.671 478.413 113.063C467.222 121.741 461.626 133.5 461.626 148.052C461.626 156.167 463.861 164.285 468.618 171.839C472.822 179.114 479.256 184.996 487.934 189.47C496.606 193.671 505.842 195.627 515.917 195.627C525.436 195.627 534.388 193.671 543.072 189.47C551.738 184.996 558.178 179.114 562.377 171.839L565.178 167.08H548.948C545.584 171.839 540.82 175.761 534.674 178.837C528.517 181.912 521.8 183.316 515.36 183.316C506.405 183.316 498.847 181.069 492.127 176.593C485.41 171.837 480.937 165.96 478.136 158.122C487.366 154.484 496.606 152.523 506.688 152.523L521.8 154.198L545.307 156.442C552.581 156.442 558.749 155.321 564.338 153.646C566.581 152.803 567.977 151.682 568.542 150.282C569.377 149.164 569.377 147.212 568.825 144.963C567.136 134.895 563.5 126.223 557.341 118.948ZM553.43 141.903L553.707 142.458L545.587 143.576L527.957 141.901L503.326 139.934H499.127C491.29 140.495 484.015 141.901 477.015 144.413C478.13 134.055 483.175 125.934 491.573 120.063C498.564 115.579 506.408 113.063 514.8 113.063C527.948 113.063 538.03 117.262 545.587 125.66C549.509 130.702 552.301 136.016 553.43 141.903ZM396.407 100.752C382.133 100.752 369.819 105.226 360.023 113.903C349.107 123.705 343.788 137.133 343.788 154.764L343.51 225.013H358.625L358.342 179.674C362.821 184.711 368.418 188.629 374.858 191.433C381.852 194.509 389.133 195.901 396.967 195.901C411.802 195.901 424.396 191.433 434.755 181.909C445.388 172.674 450.424 161.478 450.424 148.321C450.424 134.887 445.388 123.696 435.029 114.458C424.396 105.508 411.802 100.752 396.407 100.752ZM367.861 124.539C375.418 117.265 384.656 113.343 396.407 113.343C407.606 113.343 416.841 116.707 424.39 123.419C431.956 130.136 435.587 138.528 435.587 148.615C435.587 158.122 432.234 165.96 425.788 172.677C418.519 179.674 409.001 183.316 396.687 183.316C385.211 183.316 375.418 179.677 367.858 172.677C361.141 165.685 357.782 157.848 357.782 148.615C357.785 139.374 361.141 131.262 367.861 124.539Z" fill="#7951D7"/>
<path d="M237.734 38.6951C236.449 37.7224 235.23 36.6662 234.084 35.5334C210.144 18.647 181.555 9.60157 152.258 9.64395C73.6692 9.64395 9.9592 73.3817 9.9592 152.007C9.91575 182.645 19.7945 212.474 38.1173 237.03C85.7362 222.969 127.281 198.505 162.886 163.148C198.446 127.959 223.434 86.3112 237.734 38.6951Z" fill="#7951D7"/>
<path d="M152.258 294.37C230.842 294.37 294.552 230.624 294.552 152.004C294.552 124.173 286.565 98.2229 272.77 76.2993C272.408 75.9378 272.083 75.5411 271.799 75.1151C274.695 84.6702 276.161 94.6009 276.151 104.585C276.151 120.74 272.418 136.03 265.085 150.346C257.833 163.942 247.639 175.748 235.246 184.905C225.301 192.24 213.364 198.458 199.312 203.556C188.126 207.649 173.577 211.881 155.553 215.978L103.58 227.673C81.4846 232.737 61.361 238.156 43.4339 243.706C69.5341 274.693 108.594 294.37 152.258 294.37Z" fill="#7951D7"/>
</g>
<defs>
<clipPath id="clip0_8_19">
<rect width="800" height="304" fill="white"/>
</clipPath>
</defs>
</svg>
