<svg width="800" height="222" viewBox="0 0 800 222" fill="none" xmlns="http://www.w3.org/2000/svg">
<g clip-path="url(#clip0_8_30)">
<path d="M0 54.3544H47.6166L75.2585 125.174L103.304 54.3544H149.71L79.8991 222.223H33.2913L52.459 177.835L0 54.3544ZM197.932 51.5297C162.219 51.5297 139.622 83.6104 139.622 115.489C139.622 151.404 164.439 179.852 197.327 179.852C221.942 179.852 231.223 164.922 231.223 164.922V176.624H272.787V54.3544H231.223V65.4515C231.021 65.4515 220.731 51.5297 197.932 51.5297ZM206.81 90.8739C223.354 90.8739 231.828 103.989 231.828 115.691C231.828 128.402 222.749 140.912 206.81 140.912C193.695 140.912 181.791 130.218 181.791 116.296C181.791 102.173 191.274 90.8739 206.81 90.8739ZM286.91 176.624V0.28125H330.29V65.855C330.29 65.855 340.58 51.5297 362.169 51.5297C388.6 51.5297 404.136 71.3027 404.136 99.3481V176.624H360.958V109.84C360.958 100.357 356.52 91.0757 346.23 91.0757C335.738 91.0757 330.29 100.357 330.29 109.84V176.624H286.91ZM478.184 51.5297C437.226 51.5297 412.812 82.6015 412.812 116.095C412.812 154.027 442.27 180.054 478.386 180.054C513.291 180.054 543.758 155.237 543.758 116.7C543.758 74.5309 511.677 51.5297 478.184 51.5297ZM478.588 91.0757C493.115 91.0757 503.001 103.182 503.001 115.893C503.001 126.788 493.72 140.306 478.588 140.306C464.666 140.306 454.376 129.209 454.376 115.691C454.376 102.98 462.85 91.0757 478.588 91.0757ZM615.99 51.5297C575.032 51.5297 550.618 82.6015 550.618 116.095C550.618 154.027 580.076 180.054 616.192 180.054C651.097 180.054 681.564 155.237 681.564 116.7C681.564 74.5309 649.685 51.5297 615.99 51.5297ZM616.393 91.0757C630.921 91.0757 640.807 103.182 640.807 115.893C640.807 126.788 631.526 140.306 616.393 140.306C602.472 140.306 592.182 129.209 592.182 115.691C592.182 102.98 600.857 91.0757 616.393 91.0757ZM715.864 121.542C731.803 121.542 744.716 134.455 744.716 150.395C744.716 166.334 731.803 179.247 715.864 179.247C699.924 179.247 687.011 166.334 687.011 150.395C687.011 134.455 699.924 121.542 715.864 121.542ZM754.199 111.05H702.346L748.348 0.28125H800L754.199 111.05Z" fill="#7951D7"/>
</g>
<defs>
<clipPath id="clip0_8_30">
<rect width="800" height="222" fill="white"/>
</clipPath>
</defs>
</svg>
